:SAMPLES-PER-SECOND 30
:FRAME-RANGE 1-2643
:FULLY-SPECIFIED
:DEGREES
1157
root  -47.5485 33.9845 4.13201 6.35449 -36.2294 6.08719
RightUpLeg  -43.3813 -0.657931 -29.6333
RightLeg  35.8789 5.31164 3.86695
RightFoot  -3.4284 -1.82188 25.5952
RightToes  5.38607e-012 1.2921e-014 -6.02303e-014
Spine  23.4923 -2.16281 6.04146
Spine1  -7.81536 -0.963936 3.33485
HEad  -4.6404 0.455093 -8.7515
LeftShoulder1  2.44581 -7.49676 -16.15
LeftArm  -13.2426 -11.0543 -35.2639
LeftForeArm  7.73535 4.06749 -8.11126
LeftHand  -0.135706 1.69937 4.05336
RightShoulder  1.43716 4.7832 10.5985
RightArm  -45.2208 46.551 20.6683
RightForeArm  33.4356 -4.62516 -6.33556
RightHand  -0.103826 -4.84352 -19.978
LeftUpLeg  -43.3285 22.2461 10.6568
LeftLeg  66.5181 -8.90726 -20.8281
LeftFoot  -5.59317 1.01756 -19.4409
LeftToes  -4.79707e-012 -5.93756e-011 -7.55542e-012
1158
root  -48.3136 32.1922 4.45636 3.85559 -36.0715 7.96701
RightUpLeg  -48.8275 -2.22443 -31.1774
RightLeg  51.5261 6.21813 7.98228
RightFoot  -12.463 0.16459 25.1694
RightToes  5.38607e-012 1.2921e-014 -6.02303e-014
Spine  26.7455 -2.50103 6.08267
Spine1  -8.84075 -0.780839 2.22255
HEad  -7.89643 3.61515 -11.5022
LeftShoulder1  2.4421 -7.9928 -15.0262
LeftArm  -14.667 -11.6855 -34.2367
LeftForeArm  4.6526 5.35181 -7.40303
LeftHand  -0.130152 1.77264 3.94346
RightShoulder  1.22425 4.95863 7.2867
RightArm  -49.2436 51.83 14.9619
RightForeArm  32.417 -4.52605 -6.97537
RightHand  -0.221138 -4.09357 -18.9542
LeftUpLeg  -45.4443 21.3246 14.6482
LeftLeg  74.3443 -7.90872 -28.6513
LeftFoot  -8.96583 0.504442 -21.5304
LeftToes  -4.79707e-012 -5.93756e-011 -7.55542e-012
1159
root  -48.8459 30.8578 4.82215 1.64307 -34.9209 7.51437
RightUpLeg  -49.5337 -2.38482 -31.5912
RightLeg  60.5161 5.84759 10.6032
RightFoot  -17.677 1.23558 24.1747
RightToes  5.38607e-012 1.2921e-014 -6.02303e-014
Spine  29.84 -3.19278 7.88458
Spine1  -8.10567 -0.988756 2.11717
HEad  -11.1435 5.47521 -14.0946
LeftShoulder1  2.49871 -8.64031 -14.2592
LeftArm  -15.5683 -11.9641 -33.3623
LeftForeArm  1.58939 6.07098 -6.89615
LeftHand  -0.129751 1.51648 3.73606
RightShoulder  1.01548 5.30067 3.88183
RightArm  -52.4146 53.922 9.50615
RightForeArm  28.304 -4.56851 -7.02658
RightHand  -0.164888 -4.3643 -17.4394
LeftUpLeg  -46.4999 19.1983 19.3361
LeftLeg  77.1676 -5.1443 -23.91
LeftFoot  -14.812 -0.433345 -17.1064
LeftToes  -4.79707e-012 -5.93756e-011 -7.55542e-012
1160
root  -49.5069 29.5998 5.21905 0.180542 -34.7598 7.56201
RightUpLeg  -51.2567 -2.33965 -32.1638
RightLeg  68.6795 4.9091 13.0215
RightFoot  -22.3099 2.11201 23.2891
RightToes  5.38607e-012 1.2921e-014 -6.02303e-014
Spine  31.6896 -2.69811 7.48002
Spine1  -8.06677 -0.363405 1.743
HEad  -13.4608 7.20258 -16.911
LeftShoulder1  2.59716 -8.93592 -14.5871
LeftArm  -16.0954 -11.8182 -32.2534
LeftForeArm  0.899702 6.07368 -6.65943
LeftHand  -0.129103 1.58045 3.73835
RightShoulder  0.842763 5.08079 1.88361
RightArm  -56.8179 55.4947 6.03386
RightForeArm  27.2753 -4.34028 -8.36208
RightHand  -0.133652 -4.57259 -17.3822
LeftUpLeg  -47.7275 18.8797 22.236
LeftLeg  77.4398 -2.70966 -12.805
LeftFoot  -17.4068 -0.596885 -13.1799
LeftToes  -4.79707e-012 -5.93756e-011 -7.55542e-012
1161
root  -49.904 28.5895 5.76569 -0.470093 -35.1801 6.87509
RightUpLeg  -52.211 -2.68631 -32.241
RightLeg  74.2208 4.1632 15.5036
RightFoot  -25.6437 2.6213 22.0418
RightToes  5.38607e-012 1.2921e-014 -6.02303e-014
Spine  32.7258 -2.6317 7.55834
Spine1  -8.0642 -0.115897 0.788425
HEad  -15.1036 9.92739 -19.1353
LeftShoulder1  2.54399 -8.86326 -14.2465
LeftArm  -16.4959 -9.96203 -31.2849
LeftForeArm  0.244497 5.37999 -6.41813
LeftHand  -0.129576 1.24964 3.49609
RightShoulder  0.819769 5.20009 1.41737
RightArm  -58.9512 56.8957 4.82583
RightForeArm  27.1363 -4.29238 -8.63667
RightHand  -0.124321 -4.63716 -17.4187
LeftUpLeg  -48.5894 19.2115 24.2084
LeftLeg  77.0505 -1.15344 -4.49759
LeftFoot  -19.633 -0.782985 -12.3813
LeftToes  -4.79707e-012 -5.93756e-011 -7.55542e-012
1162
root  -50.1447 27.7526 6.45282 -0.638428 -36.5955 5.35553
RightUpLeg  -52.663 -2.51091 -31.748
RightLeg  78.0384 3.56368 18.1287
RightFoot  -28.4731 2.98954 20.9303
RightToes  5.38607e-012 1.2921e-014 -6.02303e-014
Spine  32.6112 -2.55526 7.35016
Spine1  -7.47393 -0.0268223 -0.346182
HEad  -15.6778 12.875 -20.9965
LeftShoulder1  2.28632 -8.09622 -13.3081
LeftArm  -15.9795 -7.50031 -29.7081
LeftForeArm  0.0295934 5.52551 -6.49458
LeftHand  -0.123292 1.18528 3.2749
RightShoulder  0.928197 5.98305 1.84049
RightArm  -59.2277 57.8243 7.89981
RightForeArm  28.4845 -3.13891 -8.96547
RightHand  -0.289838 -3.45586 -16.8508
LeftUpLeg  -48.2999 21.7329 25.9038
LeftLeg  76.4916 -0.870491 -2.89009
LeftFoot  -20.6328 -0.989532 -13.6405
LeftToes  -4.79707e-012 -5.93756e-011 -7.55542e-012
1163
root  -50.2481 27.2267 7.25165 -0.313477 -36.7102 2.52902
RightUpLeg  -50.8102 -2.7665 -30.5492
RightLeg  80.0239 3.26461 20.4521
RightFoot  -30.6782 3.31282 20.4831
RightToes  5.38607e-012 1.2921e-014 -6.02303e-014
Spine  31.8564 -2.43797 6.9495
Spine1  -6.74693 -0.142291 -0.527646
HEad  -15.2551 15.4301 -21.6556
LeftShoulder1  2.08118 -7.37094 -12.6914
LeftArm  -15.6445 -5.31715 -28.0019
LeftForeArm  -1.00593 6.24265 -6.42714
LeftHand  -0.117581 1.49062 3.31568
RightShoulder  1.15701 6.52326 3.87555
RightArm  -55.3053 56.3788 11.8813
RightForeArm  30.2946 2.70153 -5.97368
RightHand  -0.281609 -3.61862 -17.8603
LeftUpLeg  -47.5334 23.5725 27.3398
LeftLeg  74.7013 -1.87274 -6.68563
LeftFoot  -16.3638 -0.603242 -15.8923
LeftToes  -4.79707e-012 -5.93756e-011 -7.55542e-012
1164
root  -50.0165 26.9642 8.27832 -0.235352 -35.6479 -0.491516
RightUpLeg  -46.7615 -3.23441 -29.9335
RightLeg  80.1028 3.46327 21.8851
RightFoot  -32.179 3.63788 20.7811
RightToes  5.38607e-012 1.2921e-014 -6.02303e-014
Spine  30.8305 -2.14149 7.05563
Spine1  -6.31154 -0.205397 0.279456
HEad  -13.2684 16.1181 -19.9899
LeftShoulder1  1.98113 -6.90178 -12.5985
LeftArm  -15.5247 -3.49148 -26.1927
LeftForeArm  -3.0773 5.67935 -6.32749
LeftHand  -0.123634 1.75169 3.7118
RightShoulder  1.26388 5.14691 7.4478
RightArm  -49.6173 53.2123 16.2129
RightForeArm  33.888 9.39727 -2.01502
RightHand  -0.254814 -3.93422 -19.6072
LeftUpLeg  -46.1397 19.3965 30.8913
LeftLeg  77.4318 -1.69752 -7.55069
LeftFoot  -18.778 -1.29919 -21.4839
LeftToes  -4.79707e-012 -5.93756e-011 -7.55542e-012
